<svg width="145" height="34" viewBox="0 0 145 34" fill="none" xmlns="http://www.w3.org/2000/svg">
<g clip-path="url(#clip0_1105_6)">
<path d="M0 33.3929V2.20007H4.93035V18.9781H5.14976C5.40144 18.371 5.7951 17.816 6.29846 17.3134L14.1199 8.69585H20.1473L9.64128 20.2903C9.34443 20.5449 9.196 20.7408 9.196 20.9954C9.196 21.25 9.34443 21.4459 9.64128 21.7005L20.1086 33.3929H14.0296L6.25328 24.7753C5.75638 24.1682 5.35627 23.5676 5.10459 22.9082H4.93035V33.3929H0Z" fill="white"/>
<path d="M21.8962 20.9954C21.8962 13.9382 27.4784 8.08875 34.8997 8.08875C42.321 8.08875 47.9032 13.6314 47.9032 20.9954V33.3994H43.218V29.0646C41.3724 32.0872 38.1328 34.0066 34.1511 34.0066C27.0783 34.0066 21.8898 28.1571 21.8898 21.002L21.8962 20.9954ZM42.9728 21.0477C42.9728 16.5104 39.4816 12.7827 34.8997 12.7827C30.3178 12.7827 26.8266 16.5104 26.8266 21.0477C26.8266 25.5849 30.363 29.2669 34.8997 29.2669C39.4364 29.2669 42.9728 25.5392 42.9728 21.0477Z" fill="white"/>
<path d="M60.913 2.25232V33.3929H55.9827V2.25232H60.913Z" fill="white"/>
<path d="M69.2379 33.3929V2.20007H74.1682V18.9781H74.3877C74.6393 18.371 75.033 17.816 75.5364 17.3134L83.3578 8.69585H89.3852L78.8727 20.2903C78.5759 20.5449 78.421 20.7408 78.421 20.9954C78.421 21.25 78.5694 21.4459 78.8727 21.7005L89.34 33.3929H83.261L75.4847 24.7753C74.9878 24.1682 74.5877 23.5676 74.336 22.9082H74.1618V33.3929H69.2314H69.2379Z" fill="white"/>
<path d="M112.862 20.5906V8.6958H117.793V21.1977C117.793 28.3529 113.508 33.9999 105.835 33.9999C98.1617 33.9999 93.9735 28.3006 93.9735 21.1455V8.6958H98.9039V20.6428C98.9039 25.1801 101.343 29.1624 105.828 29.1624C110.313 29.1624 112.856 25.1801 112.856 20.5906H112.862Z" fill="white"/>
<path d="M130.351 2.25232V33.3929H125.421V2.25232H130.351Z" fill="white"/>
<path d="M138.566 3.32949C138.566 1.51459 140.012 0 141.806 0C143.6 0 144.994 1.51459 144.994 3.32949C144.994 5.14439 143.6 6.60676 141.806 6.60676C140.012 6.60676 138.566 5.14439 138.566 3.32949ZM144.297 8.69585V33.3994H139.366V8.69585H144.297Z" fill="white"/>
</g>
<defs>
<clipPath id="clip0_1105_6">
<rect width="145" height="34" fill="white"/>
</clipPath>
</defs>
</svg>
